<svg xmlns="http://www.w3.org/2000/svg" viewBox="0 0 32 32" role="img" aria-label="Loreforge">
	<title>Loreforge</title>
	<rect width="32" height="32" rx="7" fill="#0f172a" />
	<!-- An open book: two leaves either side of a spine, kept to simple shapes so it stays
	     legible at 16px. Amber matches the app's accent. -->
	<path
		d="M16 9.4C13.6 7.9 10.9 7.2 8 7.2c-1 0-1.8.8-1.8 1.8v12.6c0 1 .8 1.8 1.8 1.8 2.6 0 5.1.6 7.3 1.9"
		fill="none"
		stroke="#f59e0b"
		stroke-width="2.2"
		stroke-linejoin="round"
		stroke-linecap="round"
	/>
	<path
		d="M16 9.4c2.4-1.5 5.1-2.2 8-2.2 1 0 1.8.8 1.8 1.8v12.6c0 1-.8 1.8-1.8 1.8-2.6 0-5.1.6-7.3 1.9"
		fill="none"
		stroke="#fbbf24"
		stroke-width="2.2"
		stroke-linejoin="round"
		stroke-linecap="round"
	/>
	<line x1="16" y1="9.4" x2="16" y2="25.3" stroke="#f59e0b" stroke-width="2.2" stroke-linecap="round" />
</svg>
